<svg width="1057" height="977" viewBox="0 0 1057 977" fill="none" xmlns="http://www.w3.org/2000/svg">
<path d="M584.531 205.47H491.033C488.824 205.47 487.033 207.261 487.033 209.47V218.96C487.033 221.169 488.824 222.96 491.033 222.96H584.531C586.74 222.96 588.531 221.169 588.531 218.96V209.47C588.531 207.261 586.74 205.47 584.531 205.47Z" fill="#F3F2EF" stroke="#484740" stroke-miterlimit="10" stroke-linecap="round" stroke-linejoin="round"/>
<path d="M693.448 100.398H677.878V248.327H693.448V100.398Z" fill="#F3F2EF" stroke="#484740" stroke-miterlimit="10" stroke-linecap="round" stroke-linejoin="round"/>
<path d="M576.163 223.027H491.033C488.824 223.027 487.033 224.818 487.033 227.027V241.857C487.033 244.066 488.824 245.857 491.033 245.857H576.163C578.372 245.857 580.163 244.066 580.163 241.857V227.027C580.163 224.818 578.373 223.027 576.163 223.027Z" fill="#AFAF9F" stroke="#484740" stroke-miterlimit="10" stroke-linecap="round" stroke-linejoin="round"/>
<path d="M695.851 245.857H546.038C543.829 245.857 542.038 247.648 542.038 249.857V254.407C542.038 256.616 543.829 258.407 546.038 258.407H695.851C698.06 258.407 699.851 256.616 699.851 254.407V249.857C699.851 247.648 698.06 245.857 695.851 245.857Z" fill="#F3F2EF" stroke="#484740" stroke-miterlimit="10" stroke-linecap="round" stroke-linejoin="round"/>
<path d="M654.378 258.407H546.038C543.829 258.407 542.038 260.198 542.038 262.407V278.105C542.038 280.314 543.829 282.105 546.038 282.105H654.378C656.588 282.105 658.378 280.314 658.378 278.105V262.407C658.378 260.198 656.588 258.407 654.378 258.407Z" fill="#AFAF9F" stroke="#484740" stroke-miterlimit="10" stroke-linecap="round" stroke-linejoin="round"/>
<path d="M755.731 282.105H546.038C543.829 282.105 542.038 283.896 542.038 286.105V294.393C542.038 296.602 543.829 298.393 546.038 298.393H755.731C757.94 298.393 759.731 296.602 759.731 294.393V286.105C759.731 283.896 757.94 282.105 755.731 282.105Z" fill="#F3F2EF" stroke="#484740" stroke-miterlimit="10" stroke-linecap="round" stroke-linejoin="round"/>
<path d="M853.225 368.018H837.655V239.849L853.225 216.351V368.018Z" fill="#F3F2EF" stroke="#484740" stroke-miterlimit="10" stroke-linecap="round" stroke-linejoin="round"/>
<path d="M814.228 322.024H546.038C543.829 322.024 542.038 323.815 542.038 326.024V333.044C542.038 335.253 543.829 337.044 546.038 337.044H814.228C816.437 337.044 818.228 335.253 818.228 333.044V326.024C818.228 323.815 816.437 322.024 814.228 322.024Z" fill="#F3F2EF" stroke="#484740" stroke-miterlimit="10" stroke-linecap="round" stroke-linejoin="round"/>
<path d="M723.79 298.393H546.038C543.829 298.393 542.038 300.183 542.038 302.393V317.89C542.038 320.099 543.829 321.89 546.038 321.89H723.79C725.999 321.89 727.79 320.099 727.79 317.89V302.393C727.79 300.183 725.999 298.393 723.79 298.393Z" fill="#AFAF9F" stroke="#484740" stroke-miterlimit="10" stroke-linecap="round" stroke-linejoin="round"/>
<path d="M785 337.353H546C543.791 337.353 542 339.143 542 341.353V357.126C542 359.335 543.791 361.126 546 361.126H785C787.209 361.126 789 359.335 789 357.126V341.353C789 339.143 787.209 337.353 785 337.353Z" fill="#AFAF9F" stroke="#484740" stroke-miterlimit="10" stroke-linecap="round" stroke-linejoin="round"/>
<path d="M941 361.126H546C543.791 361.126 542 362.917 542 365.126V372.095C542 374.304 543.791 376.095 546 376.095H941C943.209 376.095 945 374.304 945 372.095V365.126C945 362.917 943.209 361.126 941 361.126Z" fill="#F3F2EF" stroke="#484740" stroke-miterlimit="10" stroke-linecap="round" stroke-linejoin="round"/>
<path d="M898 376.094H546C543.791 376.094 542 377.885 542 380.094V395.868C542 398.077 543.791 399.868 546 399.868H898C900.209 399.868 902 398.077 902 395.868V380.094C902 377.885 900.209 376.094 898 376.094Z" fill="#AFAF9F" stroke="#484740" stroke-miterlimit="10" stroke-linecap="round" stroke-linejoin="round"/>
<path d="M956 399.868H546C543.791 399.868 542 401.659 542 403.868V410.836C542 413.045 543.791 414.836 546 414.836H956C958.209 414.836 960 413.045 960 410.836V403.868C960 401.659 958.209 399.868 956 399.868Z" fill="#F3F2EF" stroke="#484740" stroke-miterlimit="10" stroke-linecap="round" stroke-linejoin="round"/>
<path d="M908 414.837H546C543.791 414.837 542 416.628 542 418.837V433.73C542 435.939 543.791 437.73 546 437.73H908C910.209 437.73 912 435.939 912 433.73V418.837C912 416.628 910.209 414.837 908 414.837Z" fill="#AFAF9F" stroke="#484740" stroke-miterlimit="10" stroke-linecap="round" stroke-linejoin="round"/>
<path d="M926 437.729H546C543.791 437.729 542 439.52 542 441.729V448.698C542 450.907 543.791 452.698 546 452.698H926C928.209 452.698 930 450.907 930 448.698V441.729C930 439.52 928.209 437.729 926 437.729Z" fill="#F3F2EF" stroke="#484740" stroke-miterlimit="10" stroke-linecap="round" stroke-linejoin="round"/>
<path d="M861 476.471H546C543.791 476.471 542 478.262 542 480.471V487.44C542 489.649 543.791 491.44 546 491.44H861C863.209 491.44 865 489.649 865 487.44V480.471C865 478.262 863.209 476.471 861 476.471Z" fill="#F3F2EF" stroke="#484740" stroke-miterlimit="10" stroke-linecap="round" stroke-linejoin="round"/>
<path d="M827 452.698H546C543.791 452.698 542 454.489 542 456.698V472.472C542 474.681 543.791 476.472 546 476.472H827C829.209 476.472 831 474.681 831 472.472V456.698C831 454.489 829.209 452.698 827 452.698Z" fill="#AFAF9F" stroke="#484740" stroke-miterlimit="10" stroke-linecap="round" stroke-linejoin="round"/>
<path d="M610 954.868H5C2.79086 954.868 1 956.659 1 958.868V972C1 974.209 2.79086 976 5 976H610C612.209 976 614 974.209 614 972V958.868C614 956.659 612.209 954.868 610 954.868Z" fill="#F3F2EF" stroke="#484740" stroke-miterlimit="10" stroke-linecap="round" stroke-linejoin="round"/>
<path d="M572.671 914.674H501.656C499.446 914.674 497.656 916.465 497.656 918.674V935.107C497.656 937.316 499.446 939.107 501.656 939.107H572.671C574.88 939.107 576.671 937.316 576.671 935.107V918.674C576.671 916.465 574.88 914.674 572.671 914.674Z" fill="#AFAF9F" stroke="#484740" stroke-miterlimit="10" stroke-linecap="round" stroke-linejoin="round"/>
<path d="M584 901.875H502C499.791 901.875 498 903.666 498 905.875V910.873C498 913.082 499.791 914.873 502 914.873H584C586.209 914.873 588 913.082 588 910.873V905.875C588 903.666 586.209 901.875 584 901.875Z" fill="#F3F2EF" stroke="#484740" stroke-miterlimit="10" stroke-linecap="round" stroke-linejoin="round"/>
<path d="M584 938.87H502C499.791 938.87 498 940.661 498 942.87V950.868C498 953.077 499.791 954.868 502 954.868H584C586.209 954.868 588 953.077 588 950.868V942.87C588 940.661 586.209 938.87 584 938.87Z" fill="#F3F2EF" stroke="#484740" stroke-miterlimit="10" stroke-linecap="round" stroke-linejoin="round"/>
<path d="M733.538 331.904H717.968V522.356H733.538V331.904Z" fill="#F3F2EF" stroke="#484740" stroke-miterlimit="10" stroke-linecap="round" stroke-linejoin="round"/>
<path d="M734.849 514.812H546.038C543.829 514.812 542.038 516.603 542.038 518.813V525.832C542.038 528.041 543.829 529.832 546.038 529.832H734.849C737.058 529.832 738.849 528.041 738.849 525.832V518.812C738.849 516.603 737.058 514.812 734.849 514.812Z" fill="#F3F2EF" stroke="#484740" stroke-miterlimit="10" stroke-linecap="round" stroke-linejoin="round"/>
<path d="M231.943 716.011H216.3V588.91L231.943 612.808V716.011Z" fill="#F3F2EF" stroke="#484740" stroke-miterlimit="10" stroke-linecap="round" stroke-linejoin="round"/>
<path d="M699.561 491.515H546.038C543.829 491.515 542.038 493.306 542.038 495.515V511.013C542.038 513.222 543.829 515.013 546.038 515.013H699.561C701.77 515.013 703.561 513.222 703.561 511.013V495.515C703.561 493.306 701.77 491.515 699.561 491.515Z" fill="#AFAF9F" stroke="#484740" stroke-miterlimit="10" stroke-linecap="round" stroke-linejoin="round"/>
<path d="M561.644 862.22H342.171C339.962 862.22 338.171 864.011 338.171 866.22V873.427C338.171 875.636 339.962 877.427 342.171 877.427H561.644C563.853 877.427 565.644 875.636 565.644 873.427V866.22C565.644 864.011 563.853 862.22 561.644 862.22Z" fill="#F3F2EF" stroke="#484740" stroke-miterlimit="10" stroke-linecap="round" stroke-linejoin="round"/>
<path d="M536.365 838.574H379.058C376.849 838.574 375.058 840.365 375.058 842.574V858.072C375.058 860.281 376.849 862.072 379.058 862.072H536.365C538.574 862.072 540.365 860.281 540.365 858.072V842.574C540.365 840.365 538.574 838.574 536.365 838.574Z" fill="#AFAF9F" stroke="#484740" stroke-miterlimit="10" stroke-linecap="round" stroke-linejoin="round"/>
<path d="M571.122 877.427H501.718C499.509 877.427 497.718 879.218 497.718 881.427V898.239C497.718 900.448 499.509 902.239 501.718 902.239H571.122C573.332 902.239 575.122 900.448 575.122 898.239V881.427C575.122 879.218 573.332 877.427 571.122 877.427Z" fill="#AFAF9F" stroke="#484740" stroke-miterlimit="10" stroke-linecap="round" stroke-linejoin="round"/>
<path d="M407.581 444.92H392.011V599.658H407.581V444.92Z" fill="#F3F2EF" stroke="#484740" stroke-miterlimit="10" stroke-linecap="round" stroke-linejoin="round"/>
<path d="M552.297 18.8235H522.757V939.107H552.297V18.8235Z" fill="#F3F2EF" stroke="#484740" stroke-miterlimit="10" stroke-linecap="round" stroke-linejoin="round"/>
<path d="M576.671 773.488C575.58 777.093 571.287 779.229 566.921 778.361C518.683 768.281 457.784 754.129 399.869 733.035C394.412 731.032 388.737 729.029 383.207 727.027C341.953 712.207 299.244 696.92 265.266 673.155C248.459 661.407 234.853 647.254 226.049 632.168C215.79 614.745 212.298 597.122 215.717 579.832C221.32 551.394 244.02 524.425 285.129 497.323C352.721 452.797 433.628 424.827 510.97 401.196C519.629 398.526 528.287 395.922 537.018 393.319C623.455 367.218 712.802 340.249 784.323 292.252C831.761 260.41 848.568 229.903 834.162 201.532C825.213 183.842 807.315 170.09 792.763 160.144C720.587 110.612 628.329 80.5722 552.37 59.8781V45.8596C630.585 66.9542 727.135 97.8617 802.949 149.864C818.883 160.812 838.601 175.965 848.932 196.325C859.046 216.218 857.081 236.779 843.184 257.539C833.217 272.426 816.846 287.579 794.436 302.599C720.878 351.931 630.221 379.3 542.547 405.802C533.889 408.405 525.231 411.009 516.573 413.679C440.468 436.91 360.943 464.346 295.169 507.737C257.335 532.636 236.526 556.935 231.652 581.968C226.049 609.605 242.565 639.845 275.598 662.942C307.829 685.438 349.447 700.391 389.61 714.81C395.139 716.813 400.814 718.816 406.344 720.818C463.168 741.512 523.266 755.464 570.85 765.411C575.143 766.345 577.69 769.95 576.671 773.488Z" fill="#F3F2EF" stroke="#484740" stroke-miterlimit="10" stroke-linecap="round" stroke-linejoin="round"/>
<path d="M534.327 746.585H200.364C198.155 746.585 196.364 748.376 196.364 750.585V757.605C196.364 759.814 198.155 761.605 200.364 761.605H534.327C536.537 761.605 538.327 759.814 538.327 757.605V750.585C538.327 748.376 536.537 746.585 534.327 746.585Z" fill="#F3F2EF" stroke="#484740" stroke-miterlimit="10" stroke-linecap="round" stroke-linejoin="round"/>
<path d="M534.327 669.55H262.427C260.217 669.55 258.427 671.341 258.427 673.55V680.57C258.427 682.779 260.217 684.57 262.427 684.57H534.327C536.537 684.57 538.327 682.779 538.327 680.57V673.55C538.327 671.341 536.537 669.55 534.327 669.55Z" fill="#F3F2EF" stroke="#484740" stroke-miterlimit="10" stroke-linecap="round" stroke-linejoin="round"/>
<path d="M536.437 684.57H291.239C289.03 684.57 287.239 686.361 287.239 688.57V704.068C287.239 706.277 289.03 708.068 291.239 708.068H536.437C538.646 708.068 540.437 706.277 540.437 704.068V688.57C540.437 686.361 538.646 684.57 536.437 684.57Z" fill="#AFAF9F" stroke="#484740" stroke-miterlimit="10" stroke-linecap="round" stroke-linejoin="round"/>
<path d="M534.327 708.067H213.387C211.178 708.067 209.387 709.858 209.387 712.067V719.087C209.387 721.296 211.178 723.087 213.387 723.087H534.327C536.536 723.087 538.327 721.296 538.327 719.087V712.067C538.327 709.858 536.536 708.067 534.327 708.067Z" fill="#F3F2EF" stroke="#484740" stroke-miterlimit="10" stroke-linecap="round" stroke-linejoin="round"/>
<path d="M536.437 723.087H248.311C246.102 723.087 244.311 724.878 244.311 727.087V742.585C244.311 744.794 246.102 746.585 248.311 746.585H536.437C538.646 746.585 540.437 744.794 540.437 742.585V727.087C540.437 724.878 538.646 723.087 536.437 723.087Z" fill="#AFAF9F" stroke="#484740" stroke-miterlimit="10" stroke-linecap="round" stroke-linejoin="round"/>
<path d="M536.437 761.605H240.308C238.099 761.605 236.308 763.396 236.308 765.605V781.103C236.308 783.312 238.099 785.103 240.308 785.103H536.437C538.647 785.103 540.437 783.312 540.437 781.103V765.605C540.437 763.396 538.647 761.605 536.437 761.605Z" fill="#AFAF9F" stroke="#484740" stroke-miterlimit="10" stroke-linecap="round" stroke-linejoin="round"/>
<path d="M534.327 785.036H223.792C221.583 785.036 219.792 786.827 219.792 789.036V796.056C219.792 798.265 221.583 800.056 223.792 800.056H534.327C536.536 800.056 538.327 798.265 538.327 796.056V789.036C538.327 786.827 536.536 785.036 534.327 785.036Z" fill="#F3F2EF" stroke="#484740" stroke-miterlimit="10" stroke-linecap="round" stroke-linejoin="round"/>
<path d="M1052 1H473C470.791 1 469 2.79086 469 5V14.6101C469 16.8192 470.791 18.6101 473 18.6101H1052C1054.21 18.6101 1056 16.8192 1056 14.6101V5C1056 2.79086 1054.21 1 1052 1Z" fill="#F3F2EF" stroke="#484740" stroke-miterlimit="10" stroke-linecap="round" stroke-linejoin="round"/>
<path d="M536.437 800.123H303.098C300.889 800.123 299.098 801.914 299.098 804.123V819.621C299.098 821.83 300.889 823.621 303.098 823.621H536.437C538.647 823.621 540.437 821.83 540.437 819.621V804.123C540.437 801.914 538.647 800.123 536.437 800.123Z" fill="#AFAF9F" stroke="#484740" stroke-miterlimit="10" stroke-linecap="round" stroke-linejoin="round"/>
<path d="M534.327 823.554H279.306C277.097 823.554 275.306 825.345 275.306 827.554V834.574C275.306 836.783 277.097 838.574 279.306 838.574H534.327C536.536 838.574 538.327 836.783 538.327 834.574V827.554C538.327 825.345 536.536 823.554 534.327 823.554Z" fill="#F3F2EF" stroke="#484740" stroke-miterlimit="10" stroke-linecap="round" stroke-linejoin="round"/>
<path d="M523 444.938V954.868H552V444.938" fill="#F3F2EF"/>
<path d="M523 444.938V954.868H552V444.938" stroke="#484740" stroke-miterlimit="10" stroke-linecap="round" stroke-linejoin="round"/>
<path d="M584.822 552.262H449.633C447.424 552.262 445.633 554.053 445.633 556.262V566.085C445.633 568.294 447.424 570.085 449.633 570.085H584.822C587.031 570.085 588.822 568.294 588.822 566.085V556.262C588.822 554.053 587.031 552.262 584.822 552.262Z" fill="#F3F2EF" stroke="#484740" stroke-miterlimit="10" stroke-linecap="round" stroke-linejoin="round"/>
<path d="M570.779 570.086H464.622C462.412 570.086 460.622 571.877 460.622 574.086V588.516C460.622 590.725 462.412 592.516 464.622 592.516H570.779C572.988 592.516 574.779 590.725 574.779 588.516V574.086C574.779 571.877 572.988 570.086 570.779 570.086Z" fill="#AFAF9F" stroke="#484740" stroke-miterlimit="10" stroke-linecap="round" stroke-linejoin="round"/>
<path d="M706.837 529.832H520.063C517.854 529.832 516.063 531.622 516.063 533.832V548.261C516.063 550.47 517.854 552.261 520.063 552.261H706.837C709.046 552.261 710.837 550.47 710.837 548.261V533.832C710.837 531.622 709.046 529.832 706.837 529.832Z" fill="#AFAF9F" stroke="#484740" stroke-miterlimit="10" stroke-linecap="round" stroke-linejoin="round"/>
<path d="M561.83 592.515H379.64C377.431 592.515 375.64 594.306 375.64 596.515V603.535C375.64 605.744 377.431 607.535 379.64 607.535H561.83C564.039 607.535 565.83 605.744 565.83 603.535V596.515C565.83 594.306 564.039 592.515 561.83 592.515Z" fill="#F3F2EF" stroke="#484740" stroke-miterlimit="10" stroke-linecap="round" stroke-linejoin="round"/>
<path d="M548.297 607.535H426.424C424.214 607.535 422.424 609.326 422.424 611.535V627.033C422.424 629.242 424.214 631.033 426.424 631.033H548.297C550.506 631.033 552.297 629.242 552.297 627.033V611.535C552.297 609.326 550.506 607.535 548.297 607.535Z" fill="#AFAF9F" stroke="#484740" stroke-miterlimit="10" stroke-linecap="round" stroke-linejoin="round"/>
<path d="M534.764 631.033H319.833C317.624 631.033 315.833 632.824 315.833 635.033V642.053C315.833 644.262 317.624 646.053 319.833 646.053H534.764C536.973 646.053 538.764 644.262 538.764 642.053V635.033C538.764 632.824 536.973 631.033 534.764 631.033Z" fill="#F3F2EF" stroke="#484740" stroke-miterlimit="10" stroke-linecap="round" stroke-linejoin="round"/>
<path d="M527.852 646.052H353.083C350.874 646.052 349.083 647.843 349.083 650.052V665.55C349.083 667.759 350.874 669.55 353.083 669.55H527.852C530.061 669.55 531.852 667.759 531.852 665.55V650.052C531.852 647.843 530.061 646.052 527.852 646.052Z" fill="#AFAF9F" stroke="#484740" stroke-miterlimit="10" stroke-linecap="round" stroke-linejoin="round"/>
</svg>
