<svg width="211" height="31" fill="none" xmlns="http://www.w3.org/2000/svg"><path d="M63.795 4.967l-4.363 20.06h-3.807L51.665 8.23l-3.997 16.799h-3.707l-4.364-20.06h2.9l3.466 17.643 4.144-17.644h3.15l4.24 17.65 3.585-17.644 2.713-.006zm13.399 6.466c1.232 1.426 1.847 3.36 1.847 5.803 0 1.577-.28 2.968-.838 4.17a6.395 6.395 0 01-2.424 2.8c-1.061.662-2.32.992-3.776.992-2.217 0-3.941-.712-5.172-2.138-1.232-1.425-1.85-3.36-1.855-5.801 0-1.578.28-2.968.837-4.171a6.401 6.401 0 012.424-2.8c1.058-.664 2.325-.996 3.8-.997 2.212.004 3.932.718 5.157 2.142zm-9.261 5.831c0 3.868 1.354 5.802 4.063 5.802 2.71 0 4.064-1.943 4.064-5.83 0-3.868-1.347-5.802-4.04-5.803-2.725 0-4.087 1.944-4.087 5.831zm26.737-5.831c1.231 1.426 1.845 3.36 1.84 5.803 0 1.577-.279 2.968-.838 4.17a6.387 6.387 0 01-2.423 2.8c-1.058.662-2.315.992-3.771.992-2.217 0-3.94-.712-5.172-2.138-1.231-1.425-1.85-3.36-1.855-5.801 0-1.578.28-2.968.838-4.171a6.404 6.404 0 012.424-2.8c1.057-.664 2.324-.996 3.8-.997 2.212.004 3.93.718 5.157 2.142zm-9.26 5.831c0 3.868 1.354 5.802 4.063 5.802 2.71 0 4.067-1.942 4.075-5.826 0-3.868-1.347-5.803-4.04-5.803-2.733-.003-4.1 1.94-4.099 5.827zm27.858-13.74v21.332h-2.423l-.27-2.107a5.63 5.63 0 01-1.946 1.804 5.26 5.26 0 01-2.603.645c-1.875 0-3.336-.712-4.384-2.138-1.047-1.425-1.571-3.338-1.57-5.737 0-1.559.249-2.945.747-4.158.499-1.213 1.217-2.161 2.156-2.844a5.436 5.436 0 013.291-1.025c1.616 0 3.032.626 4.249 1.877V3.207l2.753.317zM108.78 22.53c.598-.375 1.176-.938 1.735-1.689v-7.444a5.91 5.91 0 00-1.66-1.488 3.946 3.946 0 00-1.99-.505c-1.218 0-2.162.492-2.833 1.473-.67.982-1.005 2.445-1.002 4.387 0 1.964.309 3.426.928 4.389.619.962 1.507 1.443 2.663 1.443.841 0 1.561-.188 2.159-.563v-.003zm29.415-17.563l-.33 2.194h-7.99v6.496h6.943v2.193h-6.943v6.812h8.559v2.194h-11.401V4.967h11.162zm10.74 11.749l5.477 8.14h-3.325l-3.861-6.437-3.919 6.437h-3.113l5.507-8.024-4.878-7.188h3.231l3.292 5.571 3.325-5.57h3.113l-4.849 7.07zm20.141-5.34c.94 1.385 1.41 3.34 1.41 5.863 0 2.386-.539 4.31-1.617 5.774-1.078 1.462-2.605 2.19-4.581 2.185-1.756 0-3.133-.577-4.13-1.732v7.217l-2.753.317V9.644h2.367l.209 2.05a5.982 5.982 0 012.094-1.776 5.633 5.633 0 012.574-.62c2.013 0 3.488.692 4.427 2.078zm-1.557 5.863c0-3.886-1.187-5.83-3.561-5.83a3.644 3.644 0 00-2.124.663 6.63 6.63 0 00-1.676 1.704v7.418a4.085 4.085 0 001.496 1.37 4.152 4.152 0 001.97.476c2.597-.002 3.895-1.935 3.895-5.8zm19.51.92h-10.054c.12 1.675.559 2.907 1.317 3.695.757.79 1.735 1.185 2.932 1.188.711.007 1.419-.1 2.093-.317a8.554 8.554 0 002.005-1.01l1.197 1.587c-1.675 1.268-3.51 1.901-5.506 1.901-2.194 0-3.905-.693-5.131-2.079-1.227-1.386-1.84-3.29-1.841-5.715 0-1.578.264-2.978.793-4.2s1.287-2.18 2.274-2.872c.985-.693 2.148-1.04 3.487-1.04 2.094 0 3.7.664 4.817 1.992 1.117 1.328 1.676 3.166 1.676 5.513.001.444-.019.896-.059 1.357zm-2.663-2.138c0-1.5-.309-2.645-.928-3.435s-1.547-1.185-2.783-1.187c-2.254 0-3.48 1.597-3.68 4.792h7.389l.002-.17zm15.53-6.551l-.508 2.599a5.884 5.884 0 00-1.377-.174c-.976 0-1.764.347-2.363 1.04-.6.692-1.068 1.771-1.407 3.235v8.689h-2.753V9.644h2.364l.269 3.089c.419-1.136.988-1.992 1.706-2.57a3.893 3.893 0 012.514-.866 6.623 6.623 0 011.555.174zM211 24.164a6.213 6.213 0 01-3.531 1.04c-1.337 0-2.379-.372-3.126-1.113-.747-.741-1.122-1.814-1.123-3.218v-9.18h-2.752V9.644h2.752V6.21l2.753-.317v3.752h3.741l-.3 2.05h-3.441v9.064c0 .792.145 1.364.434 1.716.289.353.773.531 1.452.535.618 0 1.316-.202 2.093-.607L211 24.164zM11.395 21.576L0 9.27l.18-.284A4.042 4.042 0 011.873 7.5l.442-.207L13.71 19.6l-2.315 1.976zm8.247 4.56L17.33 24.16l11.393-12.307.046.023a6.172 6.172 0 012.268 1.953L19.642 26.136z" fill="#484740"/><mask id="a" style="mask-type:alpha" maskUnits="userSpaceOnUse" x="5" y="0" width="21" height="31"><rect x="5.935" width="19.26" height="31" rx="4" fill="#D9D9D9"/></mask><g mask="url(#a)" fill-rule="evenodd" clip-rule="evenodd" fill="#484740"><path d="M5.958-.792h3.097v13.891L5.958 9.702V-.792zm0 12.02V35.41h3.097V14.573l-3.097-3.345zm5.365-12.27h3.096v27.451l-3.096-3.396V-1.043zm0 25.579v9.119h3.096v-5.773l-3.096-3.346zM22.053-.792h3.096v15.023l-3.096 3.345V-.792zm0 19.92V35.41h3.096V15.787l-3.096 3.341zm-5.365-20.17h3.097v8.396L16.688 10.7V-1.042zm0 13.293v21.405h3.097V8.91l-3.097 3.34z"/></g></svg>