<svg width="65" height="64" fill="none" xmlns="http://www.w3.org/2000/svg"><path d="M38.538 52.287H60.52a2.802 2.802 0 012.81 2.803v5.107c0 1.602-1.305 2.803-2.81 2.803H3.81A2.802 2.802 0 011 60.197V55.09c0-1.601 1.305-2.803 2.81-2.803h22.885" stroke="#484740" stroke-width="1.5" stroke-miterlimit="10"/><path d="M26.695 54.79v-7.509h11.843v8.81m3.413-8.81v5.006h7.93v-5.006m-26.8 0v5.006h-8.33v-5.006" stroke="#484740" stroke-width="1.5" stroke-miterlimit="10"/><path d="M22.078 31.262l-8.532 8.31c-2.91 2.803-.903 7.71 3.112 7.71h32.118c4.015 0 6.022-4.807 3.212-7.71l-8.431-8.41" stroke="#484740" stroke-width="1.5" stroke-miterlimit="10"/><path d="M52.189 45.78h7.528c3.814 0 5.72-4.606 3.01-7.31l-8.029-8.01M27.096 15.943l-9.635 9.511c-2.108 2.103-.602 5.807 2.409 5.807h5.018c.903 0 1.807.3 2.61.902l.401.3a7.102 7.102 0 004.216 1.402c1.606 0 3.212-.601 4.516-1.602.803-.601 1.707-1.002 2.71-1.002h5.721c3.012 0 4.517-3.604 2.41-5.706l-9.536-9.712" stroke="#484740" stroke-width="1.5" stroke-miterlimit="10"/><path d="M44.962 32.864c.301-.1.602-.1.904-.2.903-.3 1.706-.701 2.308-1.302.803-.6 1.706-1.001 2.71-1.001h5.62c3.012 0 4.417-3.605 2.31-5.707l-9.435-9.512m-27.402-3.404c-1.505 1.502-.501 4.105 1.707 4.105h3.613c.703 0 1.305.2 1.807.6l.3.2c.904.702 1.908 1.002 3.012 1.002 1.204 0 2.309-.4 3.212-1.201.502-.5 1.204-.701 2.007-.701h4.015c2.108 0 3.212-2.603 1.706-4.105L33.12 1.225a.79.79 0 00-1.105 0L21.977 11.738z" stroke="#484740" stroke-width="1.5" stroke-miterlimit="10"/><path d="M41.55 15.743l.3.2c.804.6 1.807.901 2.71.901a4.38 4.38 0 002.911-1.101c.502-.4 1.105-.7 1.807-.7h3.714c1.907 0 2.91-2.404 1.505-3.705l-9.334-9.612c-.301-.3-.803-.3-1.004 0L38.94 7.133M13.245 45.78H5.717c-3.814 0-5.72-4.606-3.01-7.31l8.029-8.01" stroke="#484740" stroke-width="1.5" stroke-miterlimit="10"/><path d="M20.472 32.864c-.301-.1-.602-.1-.904-.2-.903-.3-1.706-.701-2.308-1.302-.803-.6-1.706-1.001-2.71-1.001H8.93c-3.012 0-4.417-3.605-2.31-5.707l9.436-9.512" stroke="#484740" stroke-width="1.5" stroke-miterlimit="10"/><path d="M23.884 15.743l-.3.2c-.804.6-1.807.901-2.71.901a4.38 4.38 0 01-2.911-1.101c-.502-.4-1.105-.7-1.807-.7h-3.714c-1.907 0-2.91-2.404-1.505-3.705l9.334-9.612c.301-.3.803-.3 1.004 0l5.22 5.407M47.07 56.592h-7.026c-2.61 0-5.119-.3-5.822-1.101-.702-.801-2.509-.6-3.111.3-.602.801-1.506-.5-2.409-.7-.903-.2-2.208-1.102-3.613-.2-1.506.9-1.907 1.901-2.61 2.002-.702.1-4.717 0-4.717 0" stroke="#484740" stroke-width="1.5" stroke-miterlimit="10"/></svg>