<svg width="58" height="58" fill="none" xmlns="http://www.w3.org/2000/svg"><path d="M56.707 31.146l-3.98-3.793-4.078 3.793m4.079 8.785V27.353m-43.67 3.993l-3.98-3.693L1 31.346m4.079 8.884V27.653M1 46.42c4.699 0 4.699 1.696 9.5 1.696 4.699 0 4.699-1.697 9.5-1.697 4.699 0 4.699 1.697 9.5 1.697 4.699 0 4.699-1.697 9.5-1.697 4.699 0 4.699 1.697 9.5 1.697 4.699 0 4.699-1.697 9.5-1.697M1 55.304c4.699 0 4.699 1.697 9.5 1.697 4.699 0 4.699-1.697 9.5-1.697 4.699 0 4.699 1.697 9.5 1.697 4.699 0 4.699-1.697 9.5-1.697 4.699 0 4.699 1.697 9.5 1.697 4.699 0 4.699-1.697 9.5-1.697M38.403 25.456c0-5.89-9.55-20.363-10.644-20.363-.895 0-10.644 14.474-10.644 20.363 0 5.89 4.676 10.682 10.644 10.682 5.87 0 10.644-4.792 10.644-10.682zM54.419 12.08c0-3.194-5.173-11.08-5.77-11.08-.497 0-5.77 7.886-5.77 11.08 0 3.195 2.587 5.79 5.77 5.79 3.184 0 5.77-2.595 5.77-5.79zM15.225 7.489c0-1.897-2.984-6.39-3.382-6.39-.299 0-3.382 4.593-3.382 6.39 0 1.796 1.492 3.394 3.382 3.394 1.89 0 3.382-1.598 3.382-3.394zM35.22 3.795c.77 0 1.393-.626 1.393-1.397 0-.772-.624-1.398-1.393-1.398-.77 0-1.393.626-1.393 1.398 0 .771.624 1.397 1.393 1.397zm7.66 35.737c.769 0 1.392-.626 1.392-1.398 0-.772-.623-1.397-1.392-1.397-.77 0-1.393.625-1.393 1.397s.623 1.398 1.392 1.398zM11.843 20.665c.77 0 1.393-.625 1.393-1.397s-.624-1.398-1.393-1.398c-.77 0-1.393.626-1.393 1.398 0 .771.624 1.397 1.393 1.397z" stroke="#484740" stroke-width="1.5" stroke-miterlimit="10"/></svg>