<svg width="1057" height="977" fill="none" xmlns="http://www.w3.org/2000/svg"><path d="M584.531 205.47h-93.498a4 4 0 00-4 4v9.49a4 4 0 004 4h93.498a4 4 0 004-4v-9.49a4 4 0 00-4-4zm108.917-105.072h-15.57v147.929h15.57V100.398z" fill="#F3F2EF" stroke="#484740" stroke-miterlimit="10" stroke-linecap="round" stroke-linejoin="round"/><path d="M576.163 223.027h-85.13a4 4 0 00-4 4v14.83a4 4 0 004 4h85.13a4 4 0 004-4v-14.83a4 4 0 00-4-4z" fill="#AFAF9F" stroke="#484740" stroke-miterlimit="10" stroke-linecap="round" stroke-linejoin="round"/><path d="M695.851 245.857H546.038a4 4 0 00-4 4v4.55a4 4 0 004 4h149.813a4 4 0 004-4v-4.55a4 4 0 00-4-4z" fill="#F3F2EF" stroke="#484740" stroke-miterlimit="10" stroke-linecap="round" stroke-linejoin="round"/><path d="M654.378 258.407h-108.34a4 4 0 00-4 4v15.698a4 4 0 004 4h108.34a4 4 0 004-4v-15.698a4 4 0 00-4-4z" fill="#AFAF9F" stroke="#484740" stroke-miterlimit="10" stroke-linecap="round" stroke-linejoin="round"/><path d="M755.731 282.105H546.038a4 4 0 00-4 4v8.288a4 4 0 004 4h209.693a4 4 0 004-4v-8.288a4 4 0 00-4-4zm97.494 85.913h-15.57V239.849l15.57-23.498v151.667zm-38.997-45.994h-268.19a4 4 0 00-4 4v7.02a4 4 0 004 4h268.19a4 4 0 004-4v-7.02a4 4 0 00-4-4z" fill="#F3F2EF" stroke="#484740" stroke-miterlimit="10" stroke-linecap="round" stroke-linejoin="round"/><path d="M723.79 298.393H546.038a4 4 0 00-4 4v15.497a4 4 0 004 4H723.79a4 4 0 004-4v-15.497a4 4 0 00-4-4zm61.21 38.96H546a4 4 0 00-4 4v15.773a4 4 0 004 4h239a4 4 0 004-4v-15.773a4 4 0 00-4-4z" fill="#AFAF9F" stroke="#484740" stroke-miterlimit="10" stroke-linecap="round" stroke-linejoin="round"/><path d="M941 361.126H546a4 4 0 00-4 4v6.969a4 4 0 004 4h395a4 4 0 004-4v-6.969a4 4 0 00-4-4z" fill="#F3F2EF" stroke="#484740" stroke-miterlimit="10" stroke-linecap="round" stroke-linejoin="round"/><path d="M898 376.094H546a4 4 0 00-4 4v15.774a4 4 0 004 4h352a4 4 0 004-4v-15.774a4 4 0 00-4-4z" fill="#AFAF9F" stroke="#484740" stroke-miterlimit="10" stroke-linecap="round" stroke-linejoin="round"/><path d="M956 399.868H546a4 4 0 00-4 4v6.968a4 4 0 004 4h410a4 4 0 004-4v-6.968a4 4 0 00-4-4z" fill="#F3F2EF" stroke="#484740" stroke-miterlimit="10" stroke-linecap="round" stroke-linejoin="round"/><path d="M908 414.837H546a4 4 0 00-4 4v14.893a4 4 0 004 4h362a4 4 0 004-4v-14.893a4 4 0 00-4-4z" fill="#AFAF9F" stroke="#484740" stroke-miterlimit="10" stroke-linecap="round" stroke-linejoin="round"/><path d="M926 437.729H546a4 4 0 00-4 4v6.969a4 4 0 004 4h380a4 4 0 004-4v-6.969a4 4 0 00-4-4zm-65 38.742H546a4 4 0 00-4 4v6.969a4 4 0 004 4h315a4 4 0 004-4v-6.969a4 4 0 00-4-4z" fill="#F3F2EF" stroke="#484740" stroke-miterlimit="10" stroke-linecap="round" stroke-linejoin="round"/><path d="M827 452.698H546a4 4 0 00-4 4v15.774a4 4 0 004 4h281a4 4 0 004-4v-15.774a4 4 0 00-4-4z" fill="#AFAF9F" stroke="#484740" stroke-miterlimit="10" stroke-linecap="round" stroke-linejoin="round"/><path d="M610 954.868H5a4 4 0 00-4 4V972a4 4 0 004 4h605a4 4 0 004-4v-13.132a4 4 0 00-4-4z" fill="#F3F2EF" stroke="#484740" stroke-miterlimit="10" stroke-linecap="round" stroke-linejoin="round"/><path d="M572.671 914.674h-71.015a4 4 0 00-4 4v16.433a4 4 0 004 4h71.015a4 4 0 004-4v-16.433a4 4 0 00-4-4z" fill="#AFAF9F" stroke="#484740" stroke-miterlimit="10" stroke-linecap="round" stroke-linejoin="round"/><path d="M584 901.875h-82a4 4 0 00-4 4v4.998a4 4 0 004 4h82a4 4 0 004-4v-4.998a4 4 0 00-4-4zm0 36.995h-82a4 4 0 00-4 4v7.998a4 4 0 004 4h82a4 4 0 004-4v-7.998a4 4 0 00-4-4zm149.538-606.966h-15.57v190.452h15.57V331.904z" fill="#F3F2EF" stroke="#484740" stroke-miterlimit="10" stroke-linecap="round" stroke-linejoin="round"/><path d="M734.849 514.812H546.038a4 4 0 00-4 4.001v7.019a4 4 0 004 4h188.811a4 4 0 004-4v-7.02a4 4 0 00-4-4zM231.943 716.011H216.3V588.91l15.643 23.898v103.203z" fill="#F3F2EF" stroke="#484740" stroke-miterlimit="10" stroke-linecap="round" stroke-linejoin="round"/><path d="M699.561 491.515H546.038a4 4 0 00-4 4v15.498a4 4 0 004 4h153.523a4 4 0 004-4v-15.498a4 4 0 00-4-4z" fill="#AFAF9F" stroke="#484740" stroke-miterlimit="10" stroke-linecap="round" stroke-linejoin="round"/><path d="M561.644 862.22H342.171a4 4 0 00-4 4v7.207a4 4 0 004 4h219.473a4 4 0 004-4v-7.207a4 4 0 00-4-4z" fill="#F3F2EF" stroke="#484740" stroke-miterlimit="10" stroke-linecap="round" stroke-linejoin="round"/><path d="M536.365 838.574H379.058a4 4 0 00-4 4v15.498a4 4 0 004 4h157.307a4 4 0 004-4v-15.498a4 4 0 00-4-4zm34.757 38.853h-69.404a4 4 0 00-4 4v16.812a4 4 0 004 4h69.404a4 4 0 004-4v-16.812a4 4 0 00-4-4z" fill="#AFAF9F" stroke="#484740" stroke-miterlimit="10" stroke-linecap="round" stroke-linejoin="round"/><path d="M407.581 444.92h-15.57v154.738h15.57V444.92zM552.297 18.823h-29.54v920.284h29.54V18.823z" fill="#F3F2EF" stroke="#484740" stroke-miterlimit="10" stroke-linecap="round" stroke-linejoin="round"/><path d="M576.671 773.488c-1.091 3.605-5.384 5.741-9.75 4.873-48.238-10.08-109.137-24.232-167.052-45.326-5.457-2.003-11.132-4.006-16.662-6.008-41.254-14.82-83.963-30.107-117.941-53.872-16.807-11.748-30.413-25.901-39.217-40.987-10.259-17.423-13.751-35.046-10.332-52.336 5.603-28.438 28.303-55.407 69.412-82.509 67.592-44.526 148.499-72.496 225.841-96.127 8.659-2.67 17.317-5.274 26.048-7.877 86.437-26.101 175.784-53.07 247.305-101.067 47.438-31.842 64.245-62.349 49.839-90.72-8.949-17.69-26.847-31.442-41.399-41.388-72.176-49.532-164.434-79.572-240.393-100.266V45.86c78.215 21.094 174.765 52.002 250.579 104.004 15.934 10.948 35.652 26.101 45.983 46.461 10.114 19.893 8.149 40.454-5.748 61.214-9.967 14.887-26.338 30.04-48.748 45.06-73.558 49.332-164.215 76.701-251.889 103.203-8.658 2.603-17.316 5.207-25.974 7.877-76.105 23.231-155.63 50.667-221.404 94.058-37.834 24.899-58.643 49.198-63.517 74.231-5.603 27.637 10.913 57.877 43.946 80.974 32.231 22.496 73.849 37.449 114.012 51.868 5.529 2.003 11.204 4.006 16.734 6.008 56.824 20.694 116.922 34.646 164.506 44.593 4.293.934 6.84 4.539 5.821 8.077z" fill="#F3F2EF" stroke="#484740" stroke-miterlimit="10" stroke-linecap="round" stroke-linejoin="round"/><path d="M534.327 746.585H200.364a4 4 0 00-4 4v7.02a4 4 0 004 4h333.963a4 4 0 004-4v-7.02a4 4 0 00-4-4zm0-77.035h-271.9a4 4 0 00-4 4v7.02a4 4 0 004 4h271.9a4 4 0 004-4v-7.02a4 4 0 00-4-4z" fill="#F3F2EF" stroke="#484740" stroke-miterlimit="10" stroke-linecap="round" stroke-linejoin="round"/><path d="M536.437 684.57H291.239a4 4 0 00-4 4v15.498a4 4 0 004 4h245.198a4 4 0 004-4V688.57a4 4 0 00-4-4z" fill="#AFAF9F" stroke="#484740" stroke-miterlimit="10" stroke-linecap="round" stroke-linejoin="round"/><path d="M534.327 708.067h-320.94a4 4 0 00-4 4v7.02a4 4 0 004 4h320.94a4 4 0 004-4v-7.02a4 4 0 00-4-4z" fill="#F3F2EF" stroke="#484740" stroke-miterlimit="10" stroke-linecap="round" stroke-linejoin="round"/><path d="M536.437 723.087H248.311a4 4 0 00-4 4v15.498a4 4 0 004 4h288.126a4 4 0 004-4v-15.498a4 4 0 00-4-4zm0 38.518H240.308a4 4 0 00-4 4v15.498a4 4 0 004 4h296.129a4 4 0 004-4v-15.498a4 4 0 00-4-4z" fill="#AFAF9F" stroke="#484740" stroke-miterlimit="10" stroke-linecap="round" stroke-linejoin="round"/><path d="M534.327 785.036H223.792a4 4 0 00-4 4v7.02a4 4 0 004 4h310.535a4 4 0 004-4v-7.02a4 4 0 00-4-4zM1052 1H473a4 4 0 00-4 4v9.61a4 4 0 004 4h579a4 4 0 004-4V5a4 4 0 00-4-4z" fill="#F3F2EF" stroke="#484740" stroke-miterlimit="10" stroke-linecap="round" stroke-linejoin="round"/><path d="M536.437 800.123H303.098a4 4 0 00-4 4v15.498a4 4 0 004 4h233.339a4 4 0 004-4v-15.498a4 4 0 00-4-4z" fill="#AFAF9F" stroke="#484740" stroke-miterlimit="10" stroke-linecap="round" stroke-linejoin="round"/><path d="M534.327 823.554H279.306a4 4 0 00-4 4v7.02a4 4 0 004 4h255.021a4 4 0 004-4v-7.02a4 4 0 00-4-4z" fill="#F3F2EF" stroke="#484740" stroke-miterlimit="10" stroke-linecap="round" stroke-linejoin="round"/><path d="M523 444.938v509.93h29v-509.93" fill="#F3F2EF"/><path d="M523 444.938v509.93h29v-509.93" stroke="#484740" stroke-miterlimit="10" stroke-linecap="round" stroke-linejoin="round"/><path d="M584.822 552.262H449.633a4 4 0 00-4 4v9.823a4 4 0 004 4h135.189a4 4 0 004-4v-9.823a4 4 0 00-4-4z" fill="#F3F2EF" stroke="#484740" stroke-miterlimit="10" stroke-linecap="round" stroke-linejoin="round"/><path d="M570.779 570.086H464.622a4 4 0 00-4 4v14.43a4 4 0 004 4h106.157a4 4 0 004-4v-14.43a4 4 0 00-4-4zm136.058-40.254H520.063a4 4 0 00-4 4v14.429a4 4 0 004 4h186.774a4 4 0 004-4v-14.429a4 4 0 00-4-4z" fill="#AFAF9F" stroke="#484740" stroke-miterlimit="10" stroke-linecap="round" stroke-linejoin="round"/><path d="M561.83 592.515H379.64a4 4 0 00-4 4v7.02a4 4 0 004 4h182.19a4 4 0 004-4v-7.02a4 4 0 00-4-4z" fill="#F3F2EF" stroke="#484740" stroke-miterlimit="10" stroke-linecap="round" stroke-linejoin="round"/><path d="M548.297 607.535H426.424a4 4 0 00-4 4v15.498a4 4 0 004 4h121.873a4 4 0 004-4v-15.498a4 4 0 00-4-4z" fill="#AFAF9F" stroke="#484740" stroke-miterlimit="10" stroke-linecap="round" stroke-linejoin="round"/><path d="M534.764 631.033H319.833a4 4 0 00-4 4v7.02a4 4 0 004 4h214.931a4 4 0 004-4v-7.02a4 4 0 00-4-4z" fill="#F3F2EF" stroke="#484740" stroke-miterlimit="10" stroke-linecap="round" stroke-linejoin="round"/><path d="M527.852 646.052H353.083a4 4 0 00-4 4v15.498a4 4 0 004 4h174.769a4 4 0 004-4v-15.498a4 4 0 00-4-4z" fill="#AFAF9F" stroke="#484740" stroke-miterlimit="10" stroke-linecap="round" stroke-linejoin="round"/></svg>