<svg width="53" height="62" fill="none" xmlns="http://www.w3.org/2000/svg"><path d="M49.106 61H3.795A2.793 2.793 0 011 58.2V3.8C1 2.2 2.297 1 3.795 1h45.31C50.704 1 51.9 2.3 51.9 3.8v54.3c.1 1.6-1.197 2.9-2.794 2.9z" stroke="#484740" stroke-width="1.5" stroke-miterlimit="10"/><path d="M52 29.1c-1.297 1.1-2.994 1.8-4.79 1.8-4.093 0-7.486-3.5-7.486-7.9s3.394-7.9 7.485-7.9c1.797 0 3.494.7 4.791 1.8m-21.258-5.5c1.996-2.3 4.49-4.1 7.285-5.1m.699 34.2c-7.086-2.2-12.276-9-12.276-17.2 0-2.6.5-5 1.397-7.2" stroke="#484740" stroke-width="1.5" stroke-miterlimit="10"/><path d="M24.055 1S16.47 7.9 16.47 24.5s10.579 27.7 21.557 27.7m9.881-3.9s2.695-2.1 3.992-4.5M5.99 1s3.194 2.2 3.194 15.7" stroke="#484740" stroke-width="1.5" stroke-miterlimit="10"/><path d="M1 27.9s7.785 1.7 12.376 12.7c4.59 11 12.176 20.4 21.657 20.4M8.386 48.3s-.999 7.8 5.788 12.7" stroke="#484740" stroke-width="1.5" stroke-miterlimit="10"/></svg>