<svg width="65" height="65" fill="none" xmlns="http://www.w3.org/2000/svg"><path d="M32.899 49.515c9.414 0 17.046-7.596 17.046-16.965 0-9.37-7.632-16.966-17.046-16.966-9.415 0-17.046 7.596-17.046 16.966 0 9.37 7.632 16.965 17.046 16.965z" stroke="#484740" stroke-width="1.5" stroke-miterlimit="10"/><path d="M32.899 45.745c7.322 0 13.258-5.908 13.258-13.195 0-7.288-5.936-13.196-13.258-13.196-7.322 0-13.258 5.908-13.258 13.196 0 7.287 5.936 13.195 13.258 13.195z" stroke="#484740" stroke-width="1.5" stroke-miterlimit="10"/><path d="M6.782 31.36H1v4.364h5.981c.598 4.862 2.592 9.227 5.483 12.898l-3.988 3.969 4.087 4.067 3.988-3.968c3.788 3.075 8.373 5.06 13.457 5.556V64h5.781v-5.655a26.713 26.713 0 0013.458-5.556l3.788 3.77 4.087-4.068-3.788-3.77c2.99-3.77 4.984-8.334 5.482-13.294H64v-5.755h-5.184a26.454 26.454 0 00-5.582-13.393l3.39-3.373-4.088-4.068-3.489 3.472a25.853 25.853 0 00-12.26-5.357V1h-5.084v5.556" stroke="#484740" stroke-width="1.5" stroke-miterlimit="10"/><path d="M32.899 24.216v8.334h-8.573M31.802 1v14.584M3.094 31.359h12.66" stroke="#484740" stroke-width="1.5" stroke-miterlimit="10"/></svg>