<svg width="90" height="78" fill="none" xmlns="http://www.w3.org/2000/svg"><path d="M3.403 66.997l7.106 7.34a4.973 4.973 0 007.12.027l3.693-3.758a4.31 4.31 0 013.707-1.243l24.966 3.704c3.235.48 6.505-.609 8.807-2.932l27.721-27.968a4.647 4.647 0 00-6.07-7.002L57.922 51.89l-27.926-7.568a15.25 15.25 0 00-14.772 3.936L3.46 60.022a4.973 4.973 0 00-.057 6.975z" fill="#BC8E55"/><path d="M34.907 55.604l20.414 5.26a4.671 4.671 0 005.742-3.592l.044-.216a4.436 4.436 0 00-3.186-5.166v0m0 0l-27.926-7.568a15.25 15.25 0 00-14.772 3.936L3.46 60.022a4.973 4.973 0 00-.057 6.975l7.106 7.34a4.973 4.973 0 007.12.027l3.693-3.758a4.31 4.31 0 013.707-1.243l24.966 3.704c3.235.48 6.505-.609 8.807-2.932l27.721-27.968a4.647 4.647 0 00.027-6.515v0a4.647 4.647 0 00-6.096-.487L57.92 51.89z" stroke="#484740"/><circle cx="52.515" cy="29.038" r="12.165" fill="#BC8E55" stroke="#484740"/><circle cx="69.196" cy="9.576" r="9.076" fill="#BC8E55" stroke="#484740"/><path d="M51.849 36.17v-1.65a4.416 4.416 0 01-1.755-.545c-.512-.3-.91-.72-1.192-1.262-.283-.541-.418-1.21-.407-2.005l.018-.043h1.642c0 .588.1 1.063.302 1.426.208.363.487.628.839.795.351.161.743.242 1.175.242.495 0 .919-.08 1.27-.242.352-.161.62-.392.804-.691.19-.3.285-.657.285-1.072 0-.346-.08-.657-.242-.933-.155-.277-.409-.527-.76-.752-.346-.225-.801-.432-1.366-.622-.772-.236-1.42-.522-1.944-.856-.525-.334-.92-.737-1.184-1.21-.265-.478-.398-1.043-.398-1.694 0-.95.274-1.725.821-2.324.548-.6 1.3-.96 2.256-1.08v-1.91h1.365v1.918c.962.138 1.709.553 2.239 1.244.535.686.803 1.608.803 2.766h-1.693c0-.784-.182-1.417-.545-1.901-.357-.484-.858-.726-1.504-.726-.68 0-1.19.178-1.53.536-.34.351-.51.835-.51 1.451 0 .37.076.692.226.968.15.271.4.516.751.735.352.219.833.432 1.444.64.783.253 1.431.547 1.944.881.513.328.896.723 1.15 1.184.253.46.38 1.017.38 1.668 0 .99-.297 1.78-.89 2.368-.594.587-1.41.936-2.446 1.046v1.65h-1.348zM68.35 15.361v-1.25a3.345 3.345 0 01-1.328-.412 2.327 2.327 0 01-.903-.956c-.214-.41-.317-.916-.308-1.518l.013-.032h1.243c0 .444.077.804.23 1.08.157.274.368.475.634.601.267.122.563.184.89.184.376 0 .696-.062.962-.184s.47-.296.609-.523c.144-.227.216-.498.216-.812 0-.261-.061-.497-.183-.706-.118-.21-.31-.4-.576-.57a4.63 4.63 0 00-1.034-.471c-.585-.179-1.076-.395-1.473-.648a2.602 2.602 0 01-.896-.916c-.2-.362-.301-.79-.301-1.283 0-.72.207-1.306.621-1.76.415-.454.984-.727 1.709-.818V2.92h1.034v1.452c.728.105 1.293.42 1.695.943.405.519.608 1.217.608 2.094H70.53c0-.593-.137-1.073-.412-1.44-.27-.366-.65-.55-1.139-.55-.514 0-.9.136-1.158.406-.257.266-.386.633-.386 1.1 0 .279.057.523.17.733.114.205.303.39.57.556.266.166.63.327 1.092.484.594.192 1.084.415 1.473.668a2.5 2.5 0 01.87.896c.192.35.288.77.288 1.263 0 .75-.225 1.348-.674 1.793-.45.445-1.067.71-1.852.792v1.25h-1.02z" fill="#484740"/></svg>