<svg width="24" height="24" viewBox="0 0 24 24" fill="none" xmlns="http://www.w3.org/2000/svg">
<path d="M12 23.4034C5.69765 23.4034 0.596621 18.3023 0.596621 12C0.596621 5.69765 5.69765 0.596621 12 0.596621C18.3023 0.596621 23.4034 5.69765 23.4034 12C23.4034 18.2919 18.2919 23.4034 12 23.4034Z" stroke="#4FBC5A" stroke-width="1.19324" stroke-miterlimit="10"/>
<path d="M6.76783 6.44383L8.72083 5.91119C9.20125 5.77542 9.70255 6.02608 9.89054 6.48561L10.7887 8.71015C10.9871 9.21145 10.8514 9.67098 10.4023 9.96341L9.30569 10.778C9.30569 10.778 10.3501 13.4517 13.243 14.6945L14.0785 13.5561C14.3605 13.1697 14.8723 13.0235 15.3109 13.2114L17.4519 14.0992C18.0159 14.3289 18.2247 14.9556 18.0368 15.5404L17.5981 17.2532C17.4728 17.7545 16.9401 18.1514 16.418 18.1305C14.726 18.0678 11.4153 17.483 8.89837 14.7989C6.51717 12.2611 6.03676 9.23234 5.92187 7.69709C5.85921 7.0809 6.18297 6.60049 6.76783 6.44383Z" fill="#4FBC5A"/>
</svg>
