<svg width="24" height="24" fill="none" xmlns="http://www.w3.org/2000/svg"><path d="M12 23.403A11.398 11.398 0 01.597 12 11.398 11.398 0 0112 .597 11.398 11.398 0 0123.403 12c0 6.292-5.111 11.403-11.403 11.403z" stroke="#4FBC5A" stroke-width="1.193" stroke-miterlimit="10"/><path d="M6.768 6.444L8.72 5.91a.978.978 0 011.17.575l.898 2.224c.198.501.062.961-.387 1.253l-1.096.815s1.044 2.674 3.937 3.916l.835-1.138a1.029 1.029 0 011.233-.345l2.14.888c.565.23.774.857.586 1.441l-.439 1.713c-.125.502-.658.898-1.18.878-1.692-.063-5.003-.648-7.52-3.332-2.38-2.538-2.861-5.567-2.976-7.102-.063-.616.261-1.097.846-1.253z" fill="#4FBC5A"/></svg>