<svg width="24" height="24" viewBox="0 0 24 24" fill="none" xmlns="http://www.w3.org/2000/svg">
<path d="M12 24C5.36815 24 0 18.6319 0 12C0 5.36815 5.36815 0 12 0C18.6319 0 24 5.36815 24 12C24 18.6319 18.6214 24 12 24Z" fill="#38A6DB"/>
<path d="M4.9295 11.8851L16.6266 6.98691C17.2846 6.71537 17.9843 7.2689 17.8694 7.96863L16.3029 17.2115C16.1775 17.953 15.3316 18.3185 14.705 17.8903L10.5065 15.06C10.141 14.8094 10.0888 14.2872 10.4125 13.9843L14.4543 10.0783C14.5796 9.95297 14.423 9.75453 14.2768 9.84853L8.89817 13.295C8.18798 13.7545 7.3107 13.8485 6.50652 13.5665L4.95039 13.013C4.43864 12.825 4.41775 12.094 4.9295 11.8851Z" fill="white"/>
</svg>
