<svg width="24" height="24" viewBox="0 0 24 24" fill="none" xmlns="http://www.w3.org/2000/svg">
<path d="M12 24C5.36814 24 0 18.6319 0 12C0 5.36815 5.36814 0 12 0C18.6318 0 24 5.36815 24 12C24 18.6214 18.6214 24 12 24Z" fill="#7360F2"/>
<path d="M14.6433 17.89H11.0153L8.99122 20.2499C8.73909 20.5466 8.24882 20.3741 8.24182 19.9877L8.19279 17.6692C6.18971 17.0551 4.73993 15.2127 4.73993 13.039V9.64405C4.73993 6.96671 6.93912 4.79999 9.65658 4.79999H14.6433C17.3607 4.79999 19.5599 6.96671 19.5599 9.64405V13.039C19.5599 15.7164 17.3537 17.89 14.6433 17.89Z" stroke="white" stroke-width="1.19324" stroke-miterlimit="10"/>
<path d="M8.91397 7.59466L8.24161 8.04318C7.70232 8.402 7.57625 9.02994 7.83539 9.61647C8.24861 10.5549 8.92798 12.0178 10.1186 13.2116C11.5054 14.6054 13.2493 15.3852 14.1738 15.7509C14.552 15.9027 14.9862 15.8544 15.2734 15.5715L15.8407 15.0195C16.1979 14.6744 16.1489 14.0948 15.7427 13.8119L14.573 12.9839C14.2649 12.763 13.8376 12.8044 13.5785 13.0736L13.2213 13.4393C13.0812 13.5773 12.8781 13.6325 12.689 13.5773C12.2408 13.4393 11.4143 13.115 10.875 12.4249C10.4268 11.8522 10.1747 11.3278 10.0486 10.9965C9.95053 10.7688 10.0206 10.5135 10.2097 10.3617L10.4688 10.1478C10.777 9.89248 10.833 9.44396 10.5879 9.12654L9.98555 8.3399L9.48128 7.68436C9.35521 7.51185 9.10307 7.47045 8.91397 7.59466Z" fill="white"/>
<path d="M12.5634 9.46464C12.6194 9.45774 12.6824 9.45084 12.7384 9.45084C13.4458 9.45084 14.0131 10.0167 14.0131 10.7067C14.0131 10.7688 14.0061 10.824 13.9991 10.8792" stroke="white" stroke-width="0.433906" stroke-miterlimit="10" stroke-linecap="round" stroke-linejoin="round"/>
<path d="M12.1919 8.40888C12.297 8.39508 12.395 8.38818 12.5001 8.38818C13.9288 8.38818 15.0845 9.52675 15.0845 10.9344C15.0845 11.0517 15.0775 11.169 15.0634 11.2863" stroke="white" stroke-width="0.433906" stroke-miterlimit="10" stroke-linecap="round" stroke-linejoin="round"/>
<path d="M11.8418 7.27723C11.9469 7.27033 12.0519 7.26343 12.157 7.26343C14.4122 7.26343 16.2402 9.06443 16.2402 11.2863C16.2402 11.4175 16.2332 11.5417 16.2192 11.6728" stroke="white" stroke-width="0.433906" stroke-miterlimit="10" stroke-linecap="round" stroke-linejoin="round"/>
</svg>
