<svg width="24" height="24" fill="none" xmlns="http://www.w3.org/2000/svg"><path d="M12 24C5.368 24 0 18.632 0 12S5.368 0 12 0s12 5.368 12 12c0 6.621-5.379 12-12 12z" fill="#7360F2"/><path d="M14.643 17.89h-3.628l-2.024 2.36c-.252.297-.742.124-.75-.262l-.048-2.319c-2.003-.614-3.453-2.456-3.453-4.63V9.644c0-2.677 2.2-4.844 4.917-4.844h4.986c2.718 0 4.917 2.167 4.917 4.844v3.395c0 2.677-2.206 4.851-4.917 4.851z" stroke="#fff" stroke-width="1.193" stroke-miterlimit="10"/><path d="M8.914 7.595l-.672.448c-.54.359-.666.987-.407 1.573.414.939 1.093 2.402 2.284 3.596 1.386 1.393 3.13 2.173 4.055 2.539.378.152.812.103 1.1-.18l.567-.551a.782.782 0 00-.098-1.208l-1.17-.828a.767.767 0 00-.995.09l-.357.365a.54.54 0 01-.532.138c-.448-.138-1.275-.462-1.814-1.152a5.617 5.617 0 01-.826-1.429.537.537 0 01.16-.634l.26-.214a.737.737 0 00.119-1.021l-.602-.787-.505-.656a.42.42 0 00-.567-.09z" fill="#fff"/><path d="M12.563 9.465a1.266 1.266 0 011.45 1.242c0 .062-.007.117-.014.172" stroke="#fff" stroke-width=".434" stroke-miterlimit="10" stroke-linecap="round" stroke-linejoin="round"/><path d="M12.192 8.409c.105-.014.203-.02.308-.02 1.429 0 2.585 1.138 2.585 2.545 0 .118-.008.235-.022.352" stroke="#fff" stroke-width=".434" stroke-miterlimit="10" stroke-linecap="round" stroke-linejoin="round"/><path d="M11.842 7.277c.105-.007.21-.014.315-.014 2.255 0 4.083 1.801 4.083 4.023 0 .132-.007.256-.02.387" stroke="#fff" stroke-width=".434" stroke-miterlimit="10" stroke-linecap="round" stroke-linejoin="round"/></svg>