<svg width="65" height="64" viewBox="0 0 65 64" fill="none" xmlns="http://www.w3.org/2000/svg">
<path d="M38.5385 52.2871H60.5196C62.1255 52.2871 63.33 53.5887 63.33 55.0905V60.1967C63.33 61.7986 62.0252 63.0001 60.5196 63.0001H3.81037C2.20445 63.0001 1 61.6985 1 60.1967V55.0905C1 53.4886 2.30482 52.2871 3.81037 52.2871H26.6948" stroke="#484740" stroke-width="1.5" stroke-miterlimit="10"/>
<path d="M26.6948 54.7902V47.2811H38.5385V56.0918" stroke="#484740" stroke-width="1.5" stroke-miterlimit="10"/>
<path d="M41.9511 47.2811V52.2872H49.8804V47.2811" stroke="#484740" stroke-width="1.5" stroke-miterlimit="10"/>
<path d="M23.0814 47.2811V52.2872H14.7507V47.2811" stroke="#484740" stroke-width="1.5" stroke-miterlimit="10"/>
<path d="M22.0777 31.2617L13.5462 39.5718C10.6355 42.3752 12.6429 47.2811 16.6577 47.2811H48.7762C52.791 47.2811 54.7984 42.4753 51.9881 39.5718L43.5569 31.1616" stroke="#484740" stroke-width="1.5" stroke-miterlimit="10"/>
<path d="M52.1889 45.7794H59.7166C63.5307 45.7794 65.4377 41.1738 62.7277 38.4705L54.6981 30.4608" stroke="#484740" stroke-width="1.5" stroke-miterlimit="10"/>
<path d="M27.0962 15.9429L17.4607 25.4544C15.3529 27.557 16.8585 31.2614 19.8696 31.2614H24.8881C25.7914 31.2614 26.6947 31.5618 27.4977 32.1625L27.8992 32.4629C29.1036 33.364 30.6092 33.8646 32.1147 33.8646C33.7207 33.8646 35.3266 33.2639 36.6314 32.2627C37.4344 31.6619 38.3377 31.2614 39.3414 31.2614H45.0625C48.0736 31.2614 49.5792 27.6571 47.4714 25.5545L37.9362 15.8428" stroke="#484740" stroke-width="1.5" stroke-miterlimit="10"/>
<path d="M44.9622 32.8637C45.2634 32.7635 45.5645 32.7635 45.8656 32.6634C46.7689 32.3631 47.5719 31.9626 48.1741 31.3618C48.9771 30.7611 49.8804 30.3606 50.8841 30.3606H56.5048C59.5159 30.3606 60.9211 26.7563 58.8134 24.6537L49.3785 15.1422" stroke="#484740" stroke-width="1.5" stroke-miterlimit="10"/>
<path d="M21.9774 11.738C20.4719 13.2398 21.4756 15.843 23.6838 15.843H27.2971C27.9997 15.843 28.6019 16.0432 29.1037 16.4437L29.4049 16.6439C30.3082 17.3448 31.3119 17.6452 32.416 17.6452C33.6204 17.6452 34.7245 17.2447 35.6278 16.4437C36.1297 15.9431 36.8323 15.7428 37.6352 15.7428H41.65C43.7578 15.7428 44.8619 13.1397 43.3563 11.6379L33.1186 1.22527C32.8174 0.924909 32.3156 0.924909 32.0145 1.22527L21.9774 11.738Z" stroke="#484740" stroke-width="1.5" stroke-miterlimit="10"/>
<path d="M41.5497 15.743L41.8508 15.9432C42.6537 16.5439 43.6574 16.8443 44.5608 16.8443C45.6648 16.8443 46.6685 16.4438 47.4715 15.743C47.9734 15.3425 48.5756 15.0421 49.2782 15.0421H52.9919C54.8989 15.0421 55.9026 12.6392 54.4974 11.3376L45.163 1.72601C44.8619 1.42564 44.36 1.42564 44.1593 1.72601L38.94 7.13255" stroke="#484740" stroke-width="1.5" stroke-miterlimit="10"/>
<path d="M13.2451 45.7794H5.71734C1.90327 45.7794 -0.00376369 41.1738 2.70623 38.4705L10.7359 30.4608" stroke="#484740" stroke-width="1.5" stroke-miterlimit="10"/>
<path d="M20.4718 32.8637C20.1707 32.7635 19.8696 32.7635 19.5685 32.6634C18.6652 32.3631 17.8622 31.9626 17.26 31.3618C16.457 30.7611 15.5537 30.3606 14.55 30.3606H8.92926C5.91815 30.3606 4.51298 26.7563 6.62076 24.6537L16.0556 15.1422" stroke="#484740" stroke-width="1.5" stroke-miterlimit="10"/>
<path d="M23.8844 15.743L23.5833 15.9432C22.7804 16.5439 21.7767 16.8443 20.8733 16.8443C19.7693 16.8443 18.7656 16.4438 17.9626 15.743C17.4607 15.3425 16.8585 15.0421 16.1559 15.0421H12.4422C10.5352 15.0421 9.53148 12.6392 10.9367 11.3376L20.2711 1.72601C20.5722 1.42564 21.0741 1.42564 21.2748 1.72601L26.4941 7.13255" stroke="#484740" stroke-width="1.5" stroke-miterlimit="10"/>
<path d="M47.0699 56.5922C47.0699 56.5922 42.754 56.5922 40.044 56.5922C37.4344 56.5922 34.9251 56.2918 34.2225 55.4909C33.5199 54.6899 31.7133 54.8902 31.111 55.7912C30.5088 56.5922 29.6055 55.2906 28.7022 55.0904C27.7988 54.8902 26.494 53.9891 25.0888 54.8902C23.5833 55.7912 23.1818 56.7925 22.4792 56.8926C21.7766 56.9927 17.7618 56.8926 17.7618 56.8926" stroke="#484740" stroke-width="1.5" stroke-miterlimit="10"/>
</svg>
