<svg width="53" height="62" viewBox="0 0 53 62" fill="none" xmlns="http://www.w3.org/2000/svg">
<path d="M49.1056 61H3.79452C2.19765 61 1 59.7 1 58.2V3.8C1 2.2 2.29745 1 3.79452 1H49.1056C50.7025 1 51.9002 2.3 51.9002 3.8V58.1C52 59.7 50.7025 61 49.1056 61Z" stroke="#484740" stroke-width="1.5" stroke-miterlimit="10"/>
<path d="M52 29.0998C50.7026 30.1998 49.0059 30.8998 47.2094 30.8998C43.1175 30.8998 39.7241 27.3998 39.7241 22.9998C39.7241 18.5999 43.1175 15.0999 47.2094 15.0999C49.0059 15.0999 50.7026 15.7999 52 16.8999" stroke="#484740" stroke-width="1.5" stroke-miterlimit="10"/>
<path d="M30.7417 11.4002C32.7378 9.10017 35.2329 7.30017 38.0274 6.30017" stroke="#484740" stroke-width="1.5" stroke-miterlimit="10"/>
<path d="M38.726 40.5C31.6399 38.3 26.4501 31.5 26.4501 23.3C26.4501 20.7 26.9491 18.3 27.8473 16.1" stroke="#484740" stroke-width="1.5" stroke-miterlimit="10"/>
<path d="M24.0548 1C24.0548 1 16.4697 7.9 16.4697 24.5C16.4697 41.1 27.0489 52.2 38.0274 52.2" stroke="#484740" stroke-width="1.5" stroke-miterlimit="10"/>
<path d="M47.908 48.3C47.908 48.3 50.6027 46.2 51.9001 43.8" stroke="#484740" stroke-width="1.5" stroke-miterlimit="10"/>
<path d="M5.9902 1C5.9902 1 9.18394 3.2 9.18394 16.7" stroke="#484740" stroke-width="1.5" stroke-miterlimit="10"/>
<path d="M1 27.8999C1 27.8999 8.78473 29.5999 13.3757 40.5999C17.9667 51.5999 25.5518 60.9999 35.0332 60.9999" stroke="#484740" stroke-width="1.5" stroke-miterlimit="10"/>
<path d="M8.38554 48.3C8.38554 48.3 7.38749 56.1 14.1742 61" stroke="#484740" stroke-width="1.5" stroke-miterlimit="10"/>
</svg>
