<svg width="58" height="58" viewBox="0 0 58 58" fill="none" xmlns="http://www.w3.org/2000/svg">
<path d="M56.7067 31.1465L52.7276 27.3533L48.6491 31.1465" stroke="#484740" stroke-width="1.5" stroke-miterlimit="10"/>
<path d="M52.7277 39.931V27.3533" stroke="#484740" stroke-width="1.5" stroke-miterlimit="10"/>
<path d="M9.0576 31.346L5.07854 27.6526L1 31.346" stroke="#484740" stroke-width="1.5" stroke-miterlimit="10"/>
<path d="M5.07864 40.2303V27.6526" stroke="#484740" stroke-width="1.5" stroke-miterlimit="10"/>
<path d="M1 46.4194C5.69892 46.4194 5.69894 48.1164 10.5 48.1164C15.1989 48.1164 15.1989 46.4194 20 46.4194C24.6989 46.4194 24.6989 48.1164 29.5 48.1164C34.1989 48.1164 34.1989 46.4194 39 46.4194C43.6989 46.4194 43.6989 48.1164 48.5 48.1164C53.1989 48.1164 53.1989 46.4194 58 46.4194" stroke="#484740" stroke-width="1.5" stroke-miterlimit="10"/>
<path d="M1 55.3037C5.69892 55.3037 5.69894 57.0007 10.5 57.0007C15.1989 57.0007 15.1989 55.3037 20 55.3037C24.6989 55.3037 24.6989 57.0007 29.5 57.0007C34.1989 57.0007 34.1989 55.3037 39 55.3037C43.6989 55.3037 43.6989 57.0007 48.5 57.0007C53.1989 57.0007 53.1989 55.3037 58 55.3037" stroke="#484740" stroke-width="1.5" stroke-miterlimit="10"/>
<path d="M38.4031 25.4564C38.4031 19.5669 28.8534 5.09253 27.7591 5.09253C26.8638 5.09253 17.1151 19.5669 17.1151 25.4564C17.1151 31.346 21.7905 36.1375 27.7591 36.1375C33.6282 36.1375 38.4031 31.346 38.4031 25.4564Z" stroke="#484740" stroke-width="1.5" stroke-miterlimit="10"/>
<path d="M54.4189 12.0804C54.4189 8.88602 49.2462 1 48.6493 1C48.1519 1 42.8797 8.88602 42.8797 12.0804C42.8797 15.2747 45.4661 17.8701 48.6493 17.8701C51.8326 17.8701 54.4189 15.2747 54.4189 12.0804Z" stroke="#484740" stroke-width="1.5" stroke-miterlimit="10"/>
<path d="M15.2251 7.48853C15.2251 5.59189 12.2409 1.09985 11.8429 1.09985C11.5445 1.09985 8.46072 5.69171 8.46072 7.48853C8.46072 9.28534 9.95289 10.8825 11.8429 10.8825C13.733 10.8825 15.2251 9.28534 15.2251 7.48853Z" stroke="#484740" stroke-width="1.5" stroke-miterlimit="10"/>
<path d="M35.2199 3.79504C35.9891 3.79504 36.6126 3.16935 36.6126 2.39752C36.6126 1.62569 35.9891 1 35.2199 1C34.4508 1 33.8272 1.62569 33.8272 2.39752C33.8272 3.16935 34.4508 3.79504 35.2199 3.79504Z" stroke="#484740" stroke-width="1.5" stroke-miterlimit="10"/>
<path d="M42.8795 39.5316C43.6487 39.5316 44.2722 38.9059 44.2722 38.1341C44.2722 37.3623 43.6487 36.7366 42.8795 36.7366C42.1104 36.7366 41.4868 37.3623 41.4868 38.1341C41.4868 38.9059 42.1104 39.5316 42.8795 39.5316Z" stroke="#484740" stroke-width="1.5" stroke-miterlimit="10"/>
<path d="M11.843 20.6652C12.6121 20.6652 13.2356 20.0395 13.2356 19.2676C13.2356 18.4958 12.6121 17.8701 11.843 17.8701C11.0738 17.8701 10.4503 18.4958 10.4503 19.2676C10.4503 20.0395 11.0738 20.6652 11.843 20.6652Z" stroke="#484740" stroke-width="1.5" stroke-miterlimit="10"/>
</svg>
