<svg width="65" height="65" viewBox="0 0 65 65" fill="none" xmlns="http://www.w3.org/2000/svg">
<path d="M32.8987 49.5148C42.3129 49.5148 49.9446 41.9192 49.9446 32.5495C49.9446 23.1798 42.3129 15.5841 32.8987 15.5841C23.4845 15.5841 15.8528 23.1798 15.8528 32.5495C15.8528 41.9192 23.4845 49.5148 32.8987 49.5148Z" stroke="#484740" stroke-width="1.5" stroke-miterlimit="10"/>
<path d="M32.8988 45.7449C40.2209 45.7449 46.1567 39.8372 46.1567 32.5496C46.1567 25.2621 40.2209 19.3544 32.8988 19.3544C25.5766 19.3544 19.6409 25.2621 19.6409 32.5496C19.6409 39.8372 25.5766 45.7449 32.8988 45.7449Z" stroke="#484740" stroke-width="1.5" stroke-miterlimit="10"/>
<path d="M6.78163 31.3591H1V35.7244H6.98101C7.57911 40.5858 9.57278 44.9512 12.4636 48.622L8.47626 52.5906L12.5633 56.6583L16.5506 52.6898C20.3386 55.7654 24.9241 57.7496 30.0079 58.2457V64H35.7895V58.3449C40.8734 57.7496 45.4588 55.7654 49.2468 52.789L53.0348 56.5591L57.1218 52.4913L53.3338 48.7213C56.3244 44.9512 58.318 40.3874 58.8164 35.4268H64V29.6724H58.8164C58.2183 24.6126 56.2247 20.0488 53.2342 16.2787L56.6234 12.9055L52.5364 8.83779L49.0475 12.3102C45.5585 9.53228 41.3718 7.64724 36.7864 6.95276V1H31.7025V6.55591" stroke="#484740" stroke-width="1.5" stroke-miterlimit="10"/>
<path d="M32.8987 24.2158V32.5497H24.3259" stroke="#484740" stroke-width="1.5" stroke-miterlimit="10"/>
<path d="M31.8021 1V15.5843" stroke="#484740" stroke-width="1.5" stroke-miterlimit="10"/>
<path d="M3.09351 31.3589H15.7533" stroke="#484740" stroke-width="1.5" stroke-miterlimit="10"/>
</svg>
