<svg width="99" height="80" viewBox="0 0 99 80" fill="none" xmlns="http://www.w3.org/2000/svg">
<path d="M39.6467 13.4155L45.7389 25.2269C45.8746 25.4901 46.1459 25.6554 46.442 25.6554H67.3851H83.2727C86.331 25.6554 88.8103 28.1346 88.8103 31.193V73.2522C88.8103 76.3106 86.331 78.7898 83.2727 78.7898H6.53758C3.47926 78.7898 1 76.3106 1 73.2522V18.6675C1 15.6091 3.47926 13.1299 6.53759 13.1299H39.178C39.3754 13.1299 39.5562 13.2401 39.6467 13.4155Z" fill="#BC8E55" stroke="#484740" stroke-linecap="round"/>
<path d="M1 42.5H88.5" stroke="#484740" stroke-linecap="round"/>
<path d="M93.1614 66.6599V66.6599C96.0013 66.6599 98.3034 64.3578 98.3034 61.5179V19.0631C98.3034 16.0048 95.8242 13.5255 92.7658 13.5255H76.8783H55.9352C55.6391 13.5255 55.3678 13.3602 55.2321 13.097L49.1399 1.28563C49.0494 1.11021 48.8686 1 48.6712 1H16.0308C12.9724 1 10.4932 3.47926 10.4932 6.53758V8.2516" stroke="#484740" stroke-linecap="round"/>
</svg>
