<svg width="90" height="78" viewBox="0 0 90 78" fill="none" xmlns="http://www.w3.org/2000/svg">
<path d="M3.4032 66.9966L10.5093 74.337C12.4533 76.3451 15.6699 76.3572 17.629 74.3638L21.3223 70.6056C22.2881 69.6229 23.6656 69.1612 25.0285 69.3634L49.9951 73.0665C53.23 73.5464 56.5002 72.458 58.8023 70.1353L86.5231 42.167C88.3077 40.3664 88.3197 37.4676 86.5499 35.6524C84.9262 33.9871 82.3213 33.7789 80.4537 35.1651L57.9207 51.89L29.9952 44.3224C24.7217 42.8933 19.0865 44.3947 15.2231 48.2581L3.45975 60.0215C1.53997 61.9413 1.5148 65.046 3.4032 66.9966Z" fill="#BC8E55"/>
<path d="M34.9069 55.604L55.3205 60.864C57.9102 61.5312 60.5303 59.8923 61.0633 57.2717L61.1073 57.0555C61.5736 54.7627 60.179 52.502 57.9207 51.89V51.89M57.9207 51.89L29.9952 44.3224C24.7217 42.8933 19.0865 44.3947 15.2231 48.2581L3.45975 60.0215C1.53997 61.9413 1.5148 65.046 3.4032 66.9966L10.5093 74.337C12.4533 76.3451 15.6699 76.3572 17.629 74.3638L21.3223 70.6056C22.2881 69.6229 23.6656 69.1612 25.0285 69.3634L49.9951 73.0665C53.23 73.5464 56.5002 72.458 58.8023 70.1353L86.5231 42.167C88.3077 40.3664 88.3197 37.4676 86.5499 35.6524V35.6524C84.9262 33.9871 82.3213 33.7789 80.4537 35.1651L57.9207 51.89Z" stroke="#484740"/>
<circle cx="52.5147" cy="29.0379" r="12.1653" fill="#BC8E55" stroke="#484740"/>
<circle cx="69.1959" cy="9.57623" r="9.07623" fill="#BC8E55" stroke="#484740"/>
<path d="M51.8487 36.1701V34.5195C51.1919 34.4503 50.6071 34.2689 50.0943 33.975C49.5816 33.6754 49.184 33.2548 48.9017 32.7133C48.6194 32.1717 48.484 31.5034 48.4955 30.7083L48.5128 30.6651H50.1548C50.1548 31.2528 50.2556 31.7281 50.4573 32.091C50.6647 32.454 50.9441 32.719 51.2956 32.8861C51.647 33.0474 52.0388 33.1281 52.4709 33.1281C52.9664 33.1281 53.3898 33.0474 53.7413 32.8861C54.0927 32.7248 54.3606 32.4943 54.545 32.1948C54.7351 31.8952 54.8302 31.538 54.8302 31.1231C54.8302 30.7775 54.7495 30.4663 54.5882 30.1898C54.4326 29.9132 54.1791 29.6626 53.8277 29.4379C53.482 29.2132 53.0269 29.0058 52.4622 28.8157C51.6902 28.5795 51.0421 28.2943 50.5178 27.9601C49.9935 27.626 49.5988 27.2227 49.3338 26.7502C49.0688 26.272 48.9363 25.7074 48.9363 25.0564C48.9363 24.1058 49.2099 23.3309 49.7573 22.7317C50.3046 22.1325 51.0565 21.7724 52.0129 21.6514V19.7415H53.3783V21.6601C54.3405 21.7983 55.0866 22.2132 55.6166 22.9045C56.1524 23.5901 56.4203 24.5119 56.4203 25.67H56.2993H54.7265C54.7265 24.8864 54.545 24.2527 54.182 23.7687C53.8248 23.2848 53.3236 23.0428 52.6783 23.0428C51.9985 23.0428 51.4886 23.2214 51.1486 23.5786C50.8087 23.93 50.6388 24.414 50.6388 25.0305C50.6388 25.3992 50.7137 25.7218 50.8635 25.9984C51.0133 26.2692 51.2639 26.514 51.6153 26.733C51.9668 26.9519 52.4478 27.1651 53.0585 27.3725C53.8421 27.626 54.4903 27.9198 55.003 28.254C55.5158 28.5824 55.8989 28.977 56.1524 29.4379C56.4059 29.8988 56.5327 30.4548 56.5327 31.1059C56.5327 32.0968 56.236 32.8861 55.6425 33.4738C55.0491 34.0614 54.2339 34.41 53.1968 34.5195V36.1701H51.8487Z" fill="#484740"/>
<path d="M68.3502 15.3612V14.1113C67.8528 14.0589 67.41 13.9215 67.0217 13.699C66.6334 13.4721 66.3323 13.1536 66.1186 12.7435C65.9048 12.3334 65.8023 11.8273 65.811 11.2252L65.8241 11.1925H67.0675C67.0675 11.6375 67.1438 11.9974 67.2965 12.2723C67.4536 12.5472 67.6652 12.7479 67.9313 12.8744C68.1975 12.9965 68.4941 13.0576 68.8214 13.0576C69.1966 13.0576 69.5172 12.9965 69.7834 12.8744C70.0495 12.7522 70.2524 12.5777 70.392 12.3508C70.536 12.124 70.6079 11.8535 70.6079 11.5393C70.6079 11.2776 70.5469 11.042 70.4247 10.8326C70.3069 10.6231 70.1149 10.4334 69.8488 10.2632C69.587 10.0931 69.2424 9.936 68.8148 9.79202C68.2302 9.61315 67.7394 9.39719 67.3423 9.14414C66.9453 8.89109 66.6465 8.58569 66.4458 8.22794C66.2451 7.86582 66.1447 7.43826 66.1447 6.94526C66.1447 6.22539 66.352 5.63858 66.7665 5.18485C67.1809 4.73111 67.7503 4.45843 68.4745 4.36681V2.92052H69.5085V4.37336C70.2371 4.47806 70.8021 4.79219 71.2035 5.31573C71.6092 5.83491 71.8121 6.53297 71.8121 7.4099H71.7205H70.5294C70.5294 6.81656 70.392 6.33664 70.1171 5.97016C69.8466 5.60368 69.4671 5.42044 68.9784 5.42044C68.4636 5.42044 68.0775 5.55569 67.8201 5.82619C67.5627 6.09232 67.434 6.4588 67.434 6.92563C67.434 7.20485 67.4907 7.44917 67.6041 7.65859C67.7176 7.86364 67.9073 8.04906 68.1735 8.21485C68.4396 8.38064 68.8039 8.54207 69.2664 8.69913C69.8597 8.89109 70.3505 9.1136 70.7388 9.36665C71.1271 9.61533 71.4173 9.91418 71.6092 10.2632C71.8012 10.6122 71.8972 11.0333 71.8972 11.5263C71.8972 12.2767 71.6725 12.8744 71.2231 13.3194C70.7737 13.7644 70.1564 14.0284 69.3711 14.1113V15.3612H68.3502Z" fill="#484740"/>
</svg>
