<svg width="89" height="831" fill="none" xmlns="http://www.w3.org/2000/svg"><path d="M78 1h-8v829h8V1zM18 1h-8v829h8V1z" fill="#F3F2EF" stroke="#484740" stroke-miterlimit="10" stroke-linecap="round" stroke-linejoin="round"/><path d="M88 26H1v3a4 4 0 004 4h79a4 4 0 004-4v-3zm0 43H1v3a4 4 0 004 4h79a4 4 0 004-4v-3zm0 43H1v3a4 4 0 004 4h79a4 4 0 004-4v-3zm0 43H1v3a4 4 0 004 4h79a4 4 0 004-4v-3zm0 43H1v3a4 4 0 004 4h79a4 4 0 004-4v-3zm0 43H1v3a4 4 0 004 4h79a4 4 0 004-4v-3zm0 43H1v3a4 4 0 004 4h79a4 4 0 004-4v-3zm0 43H1v3a4 4 0 004 4h79a4 4 0 004-4v-3zm0 43H1v3a4 4 0 004 4h79a4 4 0 004-4v-3zm0 43H1v3a4 4 0 004 4h79a4 4 0 004-4v-3zm0 43H1v3a4 4 0 004 4h79a4 4 0 004-4v-3zm0 43H1v3a4 4 0 004 4h79a4 4 0 004-4v-3zm0 43H1v3a4 4 0 004 4h79a4 4 0 004-4v-3zm0 43H1v3a4 4 0 004 4h79a4 4 0 004-4v-3zm0 43H1v3a4 4 0 004 4h79a4 4 0 004-4v-3zm0 43H1v3a4 4 0 004 4h79a4 4 0 004-4v-3zm0 43H1v3a4 4 0 004 4h79a4 4 0 004-4v-3zm0 43H1v3a4 4 0 004 4h79a4 4 0 004-4v-3zm0 43H1v3a4 4 0 004 4h79a4 4 0 004-4v-3z" fill="#AFAF9F" stroke="#484740" stroke-miterlimit="10" stroke-linecap="round" stroke-linejoin="round"/><path d="M84 22H5a4 4 0 00-4 4h87a4 4 0 00-4-4zm0 43H5a4 4 0 00-4 4h87a4 4 0 00-4-4zm0 43H5a4 4 0 00-4 4h87a4 4 0 00-4-4zm0 43H5a4 4 0 00-4 4h87a4 4 0 00-4-4zm0 43H5a4 4 0 00-4 4h87a4 4 0 00-4-4zm0 43H5a4 4 0 00-4 4h87a4 4 0 00-4-4zm0 43H5a4 4 0 00-4 4h87a4 4 0 00-4-4zm0 43H5a4 4 0 00-4 4h87a4 4 0 00-4-4zm0 43H5a4 4 0 00-4 4h87a4 4 0 00-4-4zm0 43H5a4 4 0 00-4 4h87a4 4 0 00-4-4zm0 43H5a4 4 0 00-4 4h87a4 4 0 00-4-4zm0 43H5a4 4 0 00-4 4h87a4 4 0 00-4-4zm0 43H5a4 4 0 00-4 4h87a4 4 0 00-4-4zm0 43H5a4 4 0 00-4 4h87a4 4 0 00-4-4zm0 43H5a4 4 0 00-4 4h87a4 4 0 00-4-4zm0 43H5a4 4 0 00-4 4h87a4 4 0 00-4-4zm0 43H5a4 4 0 00-4 4h87a4 4 0 00-4-4zm0 43H5a4 4 0 00-4 4h87a4 4 0 00-4-4zm0 43H5a4 4 0 00-4 4h87a4 4 0 00-4-4z" fill="#F3F2EF" stroke="#484740" stroke-miterlimit="10" stroke-linecap="round" stroke-linejoin="round"/></svg>