<svg width="89" height="831" viewBox="0 0 89 831" fill="none" xmlns="http://www.w3.org/2000/svg">
<path d="M78 1H70V830H78V1Z" fill="#F3F2EF" stroke="#484740" stroke-miterlimit="10" stroke-linecap="round" stroke-linejoin="round"/>
<path d="M18 1H10V830H18V1Z" fill="#F3F2EF" stroke="#484740" stroke-miterlimit="10" stroke-linecap="round" stroke-linejoin="round"/>
<path d="M88 26H1V29C1 31.2091 2.79086 33 5 33H84C86.2091 33 88 31.2091 88 29V26Z" fill="#AFAF9F" stroke="#484740" stroke-miterlimit="10" stroke-linecap="round" stroke-linejoin="round"/>
<path d="M88 69H1V72C1 74.2091 2.79086 76 5 76H84C86.2091 76 88 74.2091 88 72V69Z" fill="#AFAF9F" stroke="#484740" stroke-miterlimit="10" stroke-linecap="round" stroke-linejoin="round"/>
<path d="M88 112H1V115C1 117.209 2.79086 119 5 119H84C86.2091 119 88 117.209 88 115V112Z" fill="#AFAF9F" stroke="#484740" stroke-miterlimit="10" stroke-linecap="round" stroke-linejoin="round"/>
<path d="M88 155H1V158C1 160.209 2.79086 162 5 162H84C86.2091 162 88 160.209 88 158V155Z" fill="#AFAF9F" stroke="#484740" stroke-miterlimit="10" stroke-linecap="round" stroke-linejoin="round"/>
<path d="M88 198H1V201C1 203.209 2.79086 205 5 205H84C86.2091 205 88 203.209 88 201V198Z" fill="#AFAF9F" stroke="#484740" stroke-miterlimit="10" stroke-linecap="round" stroke-linejoin="round"/>
<path d="M88 241H1V244C1 246.209 2.79086 248 5 248H84C86.2091 248 88 246.209 88 244V241Z" fill="#AFAF9F" stroke="#484740" stroke-miterlimit="10" stroke-linecap="round" stroke-linejoin="round"/>
<path d="M88 284H1V287C1 289.209 2.79086 291 5 291H84C86.2091 291 88 289.209 88 287V284Z" fill="#AFAF9F" stroke="#484740" stroke-miterlimit="10" stroke-linecap="round" stroke-linejoin="round"/>
<path d="M88 327H1V330C1 332.209 2.79086 334 5 334H84C86.2091 334 88 332.209 88 330V327Z" fill="#AFAF9F" stroke="#484740" stroke-miterlimit="10" stroke-linecap="round" stroke-linejoin="round"/>
<path d="M88 370H1V373C1 375.209 2.79086 377 5 377H84C86.2091 377 88 375.209 88 373V370Z" fill="#AFAF9F" stroke="#484740" stroke-miterlimit="10" stroke-linecap="round" stroke-linejoin="round"/>
<path d="M88 413H1V416C1 418.209 2.79086 420 5 420H84C86.2091 420 88 418.209 88 416V413Z" fill="#AFAF9F" stroke="#484740" stroke-miterlimit="10" stroke-linecap="round" stroke-linejoin="round"/>
<path d="M88 456H1V459C1 461.209 2.79086 463 5 463H84C86.2091 463 88 461.209 88 459V456Z" fill="#AFAF9F" stroke="#484740" stroke-miterlimit="10" stroke-linecap="round" stroke-linejoin="round"/>
<path d="M88 499H1V502C1 504.209 2.79086 506 5 506H84C86.2091 506 88 504.209 88 502V499Z" fill="#AFAF9F" stroke="#484740" stroke-miterlimit="10" stroke-linecap="round" stroke-linejoin="round"/>
<path d="M88 542H1V545C1 547.209 2.79086 549 5 549H84C86.2091 549 88 547.209 88 545V542Z" fill="#AFAF9F" stroke="#484740" stroke-miterlimit="10" stroke-linecap="round" stroke-linejoin="round"/>
<path d="M88 585H1V588C1 590.209 2.79086 592 5 592H84C86.2091 592 88 590.209 88 588V585Z" fill="#AFAF9F" stroke="#484740" stroke-miterlimit="10" stroke-linecap="round" stroke-linejoin="round"/>
<path d="M88 628H1V631C1 633.209 2.79086 635 5 635H84C86.2091 635 88 633.209 88 631V628Z" fill="#AFAF9F" stroke="#484740" stroke-miterlimit="10" stroke-linecap="round" stroke-linejoin="round"/>
<path d="M88 671H1V674C1 676.209 2.79086 678 5 678H84C86.2091 678 88 676.209 88 674V671Z" fill="#AFAF9F" stroke="#484740" stroke-miterlimit="10" stroke-linecap="round" stroke-linejoin="round"/>
<path d="M88 714H1V717C1 719.209 2.79086 721 5 721H84C86.2091 721 88 719.209 88 717V714Z" fill="#AFAF9F" stroke="#484740" stroke-miterlimit="10" stroke-linecap="round" stroke-linejoin="round"/>
<path d="M88 757H1V760C1 762.209 2.79086 764 5 764H84C86.2091 764 88 762.209 88 760V757Z" fill="#AFAF9F" stroke="#484740" stroke-miterlimit="10" stroke-linecap="round" stroke-linejoin="round"/>
<path d="M88 800H1V803C1 805.209 2.79086 807 5 807H84C86.2091 807 88 805.209 88 803V800Z" fill="#AFAF9F" stroke="#484740" stroke-miterlimit="10" stroke-linecap="round" stroke-linejoin="round"/>
<path d="M84 22H5C2.79086 22 1 23.7909 1 26H88C88 23.7909 86.2091 22 84 22Z" fill="#F3F2EF" stroke="#484740" stroke-miterlimit="10" stroke-linecap="round" stroke-linejoin="round"/>
<path d="M84 65H5C2.79086 65 1 66.7909 1 69H88C88 66.7909 86.2091 65 84 65Z" fill="#F3F2EF" stroke="#484740" stroke-miterlimit="10" stroke-linecap="round" stroke-linejoin="round"/>
<path d="M84 108H5C2.79086 108 1 109.791 1 112H88C88 109.791 86.2091 108 84 108Z" fill="#F3F2EF" stroke="#484740" stroke-miterlimit="10" stroke-linecap="round" stroke-linejoin="round"/>
<path d="M84 151H5C2.79086 151 1 152.791 1 155H88C88 152.791 86.2091 151 84 151Z" fill="#F3F2EF" stroke="#484740" stroke-miterlimit="10" stroke-linecap="round" stroke-linejoin="round"/>
<path d="M84 194H5C2.79086 194 1 195.791 1 198H88C88 195.791 86.2091 194 84 194Z" fill="#F3F2EF" stroke="#484740" stroke-miterlimit="10" stroke-linecap="round" stroke-linejoin="round"/>
<path d="M84 237H5C2.79086 237 1 238.791 1 241H88C88 238.791 86.2091 237 84 237Z" fill="#F3F2EF" stroke="#484740" stroke-miterlimit="10" stroke-linecap="round" stroke-linejoin="round"/>
<path d="M84 280H5C2.79086 280 1 281.791 1 284H88C88 281.791 86.2091 280 84 280Z" fill="#F3F2EF" stroke="#484740" stroke-miterlimit="10" stroke-linecap="round" stroke-linejoin="round"/>
<path d="M84 323H5C2.79086 323 1 324.791 1 327H88C88 324.791 86.2091 323 84 323Z" fill="#F3F2EF" stroke="#484740" stroke-miterlimit="10" stroke-linecap="round" stroke-linejoin="round"/>
<path d="M84 366H5C2.79086 366 1 367.791 1 370H88C88 367.791 86.2091 366 84 366Z" fill="#F3F2EF" stroke="#484740" stroke-miterlimit="10" stroke-linecap="round" stroke-linejoin="round"/>
<path d="M84 409H5C2.79086 409 1 410.791 1 413H88C88 410.791 86.2091 409 84 409Z" fill="#F3F2EF" stroke="#484740" stroke-miterlimit="10" stroke-linecap="round" stroke-linejoin="round"/>
<path d="M84 452H5C2.79086 452 1 453.791 1 456H88C88 453.791 86.2091 452 84 452Z" fill="#F3F2EF" stroke="#484740" stroke-miterlimit="10" stroke-linecap="round" stroke-linejoin="round"/>
<path d="M84 495H5C2.79086 495 1 496.791 1 499H88C88 496.791 86.2091 495 84 495Z" fill="#F3F2EF" stroke="#484740" stroke-miterlimit="10" stroke-linecap="round" stroke-linejoin="round"/>
<path d="M84 538H5C2.79086 538 1 539.791 1 542H88C88 539.791 86.2091 538 84 538Z" fill="#F3F2EF" stroke="#484740" stroke-miterlimit="10" stroke-linecap="round" stroke-linejoin="round"/>
<path d="M84 581H5C2.79086 581 1 582.791 1 585H88C88 582.791 86.2091 581 84 581Z" fill="#F3F2EF" stroke="#484740" stroke-miterlimit="10" stroke-linecap="round" stroke-linejoin="round"/>
<path d="M84 624H5C2.79086 624 1 625.791 1 628H88C88 625.791 86.2091 624 84 624Z" fill="#F3F2EF" stroke="#484740" stroke-miterlimit="10" stroke-linecap="round" stroke-linejoin="round"/>
<path d="M84 667H5C2.79086 667 1 668.791 1 671H88C88 668.791 86.2091 667 84 667Z" fill="#F3F2EF" stroke="#484740" stroke-miterlimit="10" stroke-linecap="round" stroke-linejoin="round"/>
<path d="M84 710H5C2.79086 710 1 711.791 1 714H88C88 711.791 86.2091 710 84 710Z" fill="#F3F2EF" stroke="#484740" stroke-miterlimit="10" stroke-linecap="round" stroke-linejoin="round"/>
<path d="M84 753H5C2.79086 753 1 754.791 1 757H88C88 754.791 86.2091 753 84 753Z" fill="#F3F2EF" stroke="#484740" stroke-miterlimit="10" stroke-linecap="round" stroke-linejoin="round"/>
<path d="M84 796H5C2.79086 796 1 797.791 1 800H88C88 797.791 86.2091 796 84 796Z" fill="#F3F2EF" stroke="#484740" stroke-miterlimit="10" stroke-linecap="round" stroke-linejoin="round"/>
</svg>
