<svg width="99" height="80" fill="none" xmlns="http://www.w3.org/2000/svg"><path d="M39.647 13.415l6.092 11.812a.791.791 0 00.703.428h36.831a5.538 5.538 0 015.537 5.538v42.06a5.538 5.538 0 01-5.537 5.537H6.538A5.538 5.538 0 011 73.252V18.668a5.538 5.538 0 015.538-5.538h32.64a.53.53 0 01.469.285z" fill="#BC8E55" stroke="#484740" stroke-linecap="round"/><path d="M1 42.5h87.5m4.661 24.16v0a5.142 5.142 0 005.142-5.142V19.063a5.538 5.538 0 00-5.537-5.537H55.935a.791.791 0 01-.703-.429L49.14 1.286A.527.527 0 0048.67 1H16.03a5.538 5.538 0 00-5.538 5.538v1.714" stroke="#484740" stroke-linecap="round"/></svg>