<svg width="95" height="78" viewBox="0 0 95 78" fill="none" xmlns="http://www.w3.org/2000/svg">
<rect x="0.5" y="16.5" width="94" height="14" rx="0.927337" fill="#BC8E55" stroke="#484741"/>
<path d="M6.5 30.5H88.5V75.859C88.5 76.7653 87.7653 77.5 86.859 77.5H8.14101C7.23471 77.5 6.5 76.7653 6.5 75.859V30.5Z" fill="#BC8E55" stroke="#484741"/>
<path d="M48.4568 11.0619C48.4568 5.22871 53.1855 0.5 59.0186 0.5H61.8733C66.1299 0.5 69.5805 3.95063 69.5805 8.20719C69.5805 12.4637 66.1299 15.9144 61.8733 15.9144H48.4568V11.0619Z" stroke="#484741"/>
<path d="M47.4568 11.4187C47.4568 5.38847 42.5683 0.5 36.5381 0.5H33.3266C29.07 0.5 25.6194 3.95063 25.6194 8.20719C25.6194 12.4637 29.07 15.9144 33.3266 15.9144H47.4568V11.4187Z" stroke="#484741"/>
</svg>
